G04 ================== begin FILE IDENTIFICATION RECORD ==================*
G04 Layout Name:  C:/Users/user/Desktop/work/OSCILLATOR/allegro/OSCILLATOR.brd*
G04 Film Name:    SilkT*
G04 File Format:  Gerber RS274X*
G04 File Origin:  Cadence Allegro 17.2-P019*
G04 Origin Date:  Thu Aug 01 12:29:09 2019*
G04 *
G04 Layer:  REF DES/SILKSCREEN_TOP*
G04 Layer:  PACKAGE GEOMETRY/SILKSCREEN_TOP*
G04 Layer:  BOARD GEOMETRY/SILKSCREEN_TOP*
G04 *
G04 Offset:    (0.000 0.000)*
G04 Mirror:    No*
G04 Mode:      Positive*
G04 Rotation:  0*
G04 FullContactRelief:  No*
G04 UndefLineWidth:     0.200*
G04 ================== end FILE IDENTIFICATION RECORD ====================*
%FSLAX25Y25*MOMM*%
%IR0*IPPOS*OFA0.00000B0.00000*MIA0B0*SFA1.00000B1.00000*%
%ADD10C,.203*%
%ADD11C,.2*%
G75*
%LPD*%
G75*
G54D10*
G01X1625600Y2006600D02*
Y1435100D01*
G01D02*
X2692400D01*
G01X1625600Y1866900D02*
X2692400D01*
G01Y2006600D02*
X1625600D01*
G01X2692400Y1435100D02*
Y2006600D01*
G01X2970600Y5042100D02*
Y4470600D01*
G01D02*
X4037400D01*
G01X2970600Y4902400D02*
X4037400D01*
G01Y5042100D02*
X2970600D01*
G01X4037400Y4470600D02*
Y5042100D01*
G54D11*
G01X373000Y4127000D02*
X627000D01*
Y3365000D01*
X373000D01*
Y4127000D01*
G01X388200Y4223000D02*
X398200Y4207000D01*
X410100Y4196300D01*
X424000Y4191000D01*
X439900Y4196300D01*
X451900Y4207000D01*
X463800Y4223000D01*
X467800Y4244300D01*
Y4351000D01*
G01X550200Y4324300D02*
X562100Y4340300D01*
X576100Y4348300D01*
X592000Y4351000D01*
X611900Y4345700D01*
X625800Y4332300D01*
X629800Y4316300D01*
X627800Y4300300D01*
X619800Y4287000D01*
X580000Y4260300D01*
X562100Y4241700D01*
X550200Y4215000D01*
X546200Y4191000D01*
X629800D01*
G01X1631300Y1369000D02*
Y1254300D01*
X1639300Y1230300D01*
X1655200Y1214300D01*
X1675100Y1209000D01*
X1695000Y1214300D01*
X1710900Y1230300D01*
X1718900Y1254300D01*
Y1369000D01*
G01X1797300Y1275700D02*
X1811200Y1294300D01*
X1823200Y1305000D01*
X1839100Y1310300D01*
X1853000Y1305000D01*
X1863000Y1294300D01*
X1870900Y1278300D01*
X1872900Y1259700D01*
X1870900Y1243700D01*
X1863000Y1227700D01*
X1851000Y1214300D01*
X1837100Y1209000D01*
X1821200Y1214300D01*
X1807200Y1230300D01*
X1799300Y1254300D01*
X1797300Y1281000D01*
X1801300Y1315700D01*
X1807200Y1334300D01*
X1817200Y1353000D01*
X1831100Y1366300D01*
X1845000Y1369000D01*
X1859000Y1363700D01*
X1868900Y1350300D01*
G01X2095500Y2413000D02*
G03I-254000J0D01*
G01X1741800Y2877200D02*
X1729800Y2885200D01*
X1715900Y2890500D01*
X1700000D01*
X1682100Y2882500D01*
X1668200Y2869200D01*
X1658200Y2853200D01*
X1650200Y2826500D01*
X1648200Y2802500D01*
X1652200Y2778500D01*
X1658200Y2762500D01*
X1670100Y2746500D01*
X1684100Y2735800D01*
X1698000Y2730500D01*
X1711900D01*
X1725900Y2735800D01*
X1737800Y2743800D01*
X1747800Y2754500D01*
G01X1814200D02*
X1826200Y2741200D01*
X1840100Y2733200D01*
X1858000Y2730500D01*
X1875900Y2735800D01*
X1889800Y2746500D01*
X1899800Y2765200D01*
X1901800Y2786500D01*
X1897800Y2807800D01*
X1887800Y2821200D01*
X1873900Y2831800D01*
X1860000Y2834500D01*
X1846100Y2831800D01*
X1828200Y2821200D01*
X1834100Y2890500D01*
X1887800D01*
G01X1714500Y3340100D02*
Y3492500D01*
X1778000Y3556000D01*
Y3683000D01*
X1714500Y3746500D01*
Y3898900D01*
X2730500D01*
Y3340100D01*
X1714500D01*
G01X1717700Y4160500D02*
Y4045800D01*
X1725700Y4021800D01*
X1741600Y4005800D01*
X1761500Y4000500D01*
X1781400Y4005800D01*
X1797300Y4021800D01*
X1805300Y4045800D01*
Y4160500D01*
G01X1921500Y4000500D02*
Y4160500D01*
X1897600Y4128500D01*
G01Y4000500D02*
X1945400D01*
G01X2730500Y2413000D02*
G03I-254000J0D01*
G01X2313300Y2877200D02*
X2301300Y2885200D01*
X2287400Y2890500D01*
X2271500D01*
X2253600Y2882500D01*
X2239700Y2869200D01*
X2229700Y2853200D01*
X2221700Y2826500D01*
X2219700Y2802500D01*
X2223700Y2778500D01*
X2229700Y2762500D01*
X2241600Y2746500D01*
X2255600Y2735800D01*
X2269500Y2730500D01*
X2283400D01*
X2297400Y2735800D01*
X2309300Y2743800D01*
X2319300Y2754500D01*
G01X2391700Y2863800D02*
X2403600Y2879800D01*
X2417600Y2887800D01*
X2433500Y2890500D01*
X2453400Y2885200D01*
X2467300Y2871800D01*
X2471300Y2855800D01*
X2469300Y2839800D01*
X2461300Y2826500D01*
X2421500Y2799800D01*
X2403600Y2781200D01*
X2391700Y2754500D01*
X2387700Y2730500D01*
X2471300D01*
G01X2804000Y4777000D02*
G03I-254000J0D01*
G01X2503800Y5290200D02*
X2491800Y5298200D01*
X2477900Y5303500D01*
X2462000D01*
X2444100Y5295500D01*
X2430200Y5282200D01*
X2420200Y5266200D01*
X2412200Y5239500D01*
X2410200Y5215500D01*
X2414200Y5191500D01*
X2420200Y5175500D01*
X2432100Y5159500D01*
X2446100Y5148800D01*
X2460000Y5143500D01*
X2473900D01*
X2487900Y5148800D01*
X2499800Y5156800D01*
X2509800Y5167500D01*
G01X2576200Y5175500D02*
X2588200Y5156800D01*
X2604100Y5146200D01*
X2622000Y5143500D01*
X2637900Y5146200D01*
X2653800Y5159500D01*
X2663800Y5175500D01*
X2665800Y5191500D01*
X2661800Y5210200D01*
X2647900Y5223500D01*
X2633900Y5228800D01*
X2616000D01*
G01X2633900D02*
X2645900Y5236800D01*
X2655800Y5250200D01*
X2659800Y5266200D01*
X2655800Y5282200D01*
X2645900Y5295500D01*
X2628000Y5303500D01*
X2610100Y5300800D01*
X2592100Y5290200D01*
G01X3566700Y300000D02*
X3433300D01*
Y800000D01*
X3566700D01*
G01X3513300Y558300D02*
X3433300D01*
G01X3683300Y800000D02*
Y300000D01*
X3816700D01*
G01X4066700D02*
X3933300D01*
Y800000D01*
X4066700D01*
G01X4013300Y558300D02*
X3933300D01*
G01X4323300Y758300D02*
X4303300Y783300D01*
X4280000Y800000D01*
X4253300D01*
X4223300Y775000D01*
X4200000Y733300D01*
X4183300Y683300D01*
X4170000Y600000D01*
X4166700Y525000D01*
X4173300Y450000D01*
X4183300Y400000D01*
X4203300Y350000D01*
X4226700Y316700D01*
X4250000Y300000D01*
X4273300D01*
X4296700Y316700D01*
X4316700Y341700D01*
X4333300Y375000D01*
G01X4500000Y800000D02*
Y300000D01*
G01X4423300Y800000D02*
X4576700D01*
G01X4683300Y300000D02*
Y800000D01*
X4766700D01*
X4793300Y775000D01*
X4810000Y741700D01*
X4816700Y675000D01*
X4810000Y608300D01*
X4790000Y566700D01*
X4766700Y541700D01*
X4683300D01*
G01X4766700D02*
X4816700Y300000D01*
G01X5000000D02*
X4973300Y308300D01*
X4950000Y341700D01*
X4930000Y391700D01*
X4916700Y450000D01*
X4910000Y516700D01*
Y583300D01*
X4916700Y650000D01*
X4930000Y708300D01*
X4950000Y758300D01*
X4973300Y791700D01*
X5000000Y800000D01*
X5026700Y791700D01*
X5050000Y758300D01*
X5070000Y708300D01*
X5083300Y650000D01*
X5090000Y583300D01*
Y516700D01*
X5083300Y450000D01*
X5070000Y391700D01*
X5050000Y341700D01*
X5026700Y308300D01*
X5000000Y300000D01*
G01X5173300D02*
Y800000D01*
X5326700Y300000D01*
Y800000D01*
G01X5460000D02*
X5540000D01*
G01X5500000D02*
Y300000D01*
G01X5460000D02*
X5540000D01*
G01X5823300Y758300D02*
X5803300Y783300D01*
X5780000Y800000D01*
X5753300D01*
X5723300Y775000D01*
X5700000Y733300D01*
X5683300Y683300D01*
X5670000Y600000D01*
X5666700Y525000D01*
X5673300Y450000D01*
X5683300Y400000D01*
X5703300Y350000D01*
X5726700Y316700D01*
X5750000Y300000D01*
X5773300D01*
X5796700Y316700D01*
X5816700Y341700D01*
X5833300Y375000D01*
G01X6323300Y758300D02*
X6303300Y783300D01*
X6280000Y800000D01*
X6253300D01*
X6223300Y775000D01*
X6200000Y733300D01*
X6183300Y683300D01*
X6170000Y600000D01*
X6166700Y525000D01*
X6173300Y450000D01*
X6183300Y400000D01*
X6203300Y350000D01*
X6226700Y316700D01*
X6250000Y300000D01*
X6273300D01*
X6296700Y316700D01*
X6316700Y341700D01*
X6333300Y375000D01*
G01X6416700Y300000D02*
X6500000Y800000D01*
X6583300Y300000D01*
G01X6553300Y475000D02*
X6446700D01*
G01X6676700Y300000D02*
Y800000D01*
X6743300D01*
X6770000Y775000D01*
X6790000Y741700D01*
X6806700Y691700D01*
X6820000Y633300D01*
X6823300Y550000D01*
X6820000Y466700D01*
X6806700Y408300D01*
X6790000Y358300D01*
X6770000Y325000D01*
X6743300Y300000D01*
X6676700D01*
G01X2921000Y1676400D02*
Y2387600D01*
X3175000D01*
Y1676400D01*
X2921000D01*
G01X2864700Y2476500D02*
Y2636500D01*
X2914400D01*
X2930400Y2628500D01*
X2940300Y2617800D01*
X2944300Y2596500D01*
X2940300Y2575200D01*
X2928400Y2561800D01*
X2914400Y2553800D01*
X2864700D01*
G01X2914400D02*
X2944300Y2476500D01*
G01X3026700Y2543200D02*
X3040600Y2561800D01*
X3052600Y2572500D01*
X3068500Y2577800D01*
X3082400Y2572500D01*
X3092400Y2561800D01*
X3100300Y2545800D01*
X3102300Y2527200D01*
X3100300Y2511200D01*
X3092400Y2495200D01*
X3080400Y2481800D01*
X3066500Y2476500D01*
X3050600Y2481800D01*
X3036600Y2497800D01*
X3028700Y2521800D01*
X3026700Y2548500D01*
X3030700Y2583200D01*
X3036600Y2601800D01*
X3046600Y2620500D01*
X3060500Y2633800D01*
X3074400Y2636500D01*
X3088400Y2631200D01*
X3098300Y2617800D01*
G01X2973000Y3301600D02*
Y3454000D01*
X3036500Y3517500D01*
Y3644500D01*
X2973000Y3708000D01*
Y3860400D01*
X3989000D01*
Y3301600D01*
X2973000D01*
G01X2987700Y4097000D02*
Y3982300D01*
X2995700Y3958300D01*
X3011600Y3942300D01*
X3031500Y3937000D01*
X3051400Y3942300D01*
X3067300Y3958300D01*
X3075300Y3982300D01*
Y4097000D01*
G01X3153700Y4070300D02*
X3165600Y4086300D01*
X3179600Y4094300D01*
X3195500Y4097000D01*
X3215400Y4091700D01*
X3229300Y4078300D01*
X3233300Y4062300D01*
X3231300Y4046300D01*
X3223300Y4033000D01*
X3183500Y4006300D01*
X3165600Y3987700D01*
X3153700Y3961000D01*
X3149700Y3937000D01*
X3233300D01*
G01X3000400Y5367000D02*
Y5252300D01*
X3008400Y5228300D01*
X3024300Y5212300D01*
X3044200Y5207000D01*
X3064100Y5212300D01*
X3080000Y5228300D01*
X3088000Y5252300D01*
Y5367000D01*
G01X3160400Y5231000D02*
X3172400Y5217700D01*
X3186300Y5209700D01*
X3204200Y5207000D01*
X3222100Y5212300D01*
X3236000Y5223000D01*
X3246000Y5241700D01*
X3248000Y5263000D01*
X3244000Y5284300D01*
X3234000Y5297700D01*
X3220100Y5308300D01*
X3206200Y5311000D01*
X3192300Y5308300D01*
X3174400Y5297700D01*
X3180300Y5367000D01*
X3234000D01*
G01X4635500Y3365500D02*
G03I-254000J0D01*
G01X4281800Y3829700D02*
X4269800Y3837700D01*
X4255900Y3843000D01*
X4240000D01*
X4222100Y3835000D01*
X4208200Y3821700D01*
X4198200Y3805700D01*
X4190200Y3779000D01*
X4188200Y3755000D01*
X4192200Y3731000D01*
X4198200Y3715000D01*
X4210100Y3699000D01*
X4224100Y3688300D01*
X4238000Y3683000D01*
X4251900D01*
X4265900Y3688300D01*
X4277800Y3696300D01*
X4287800Y3707000D01*
G01X4398000Y3683000D02*
Y3843000D01*
X4374100Y3811000D01*
G01Y3683000D02*
X4421900D01*
G01X3750000Y6150000D02*
X3723300Y6158300D01*
X3700000Y6191700D01*
X3680000Y6241700D01*
X3666700Y6300000D01*
X3660000Y6366700D01*
Y6433300D01*
X3666700Y6500000D01*
X3680000Y6558300D01*
X3700000Y6608300D01*
X3723300Y6641700D01*
X3750000Y6650000D01*
X3776700Y6641700D01*
X3800000Y6608300D01*
X3820000Y6558300D01*
X3833300Y6500000D01*
X3840000Y6433300D01*
Y6366700D01*
X3833300Y6300000D01*
X3820000Y6241700D01*
X3800000Y6191700D01*
X3776700Y6158300D01*
X3750000Y6150000D01*
G01X3930000Y6216700D02*
X3956700Y6175000D01*
X3986700Y6150000D01*
X4013300D01*
X4040000Y6175000D01*
X4060000Y6216700D01*
X4070000Y6275000D01*
X4063300Y6333300D01*
X4046700Y6383300D01*
X4016700Y6416700D01*
X3976700Y6433300D01*
X3953300Y6466700D01*
X3943300Y6525000D01*
X3950000Y6583300D01*
X3966700Y6625000D01*
X3990000Y6650000D01*
X4013300D01*
X4036700Y6633300D01*
X4056700Y6591700D01*
G01X4323300Y6608300D02*
X4303300Y6633300D01*
X4280000Y6650000D01*
X4253300D01*
X4223300Y6625000D01*
X4200000Y6583300D01*
X4183300Y6533300D01*
X4170000Y6450000D01*
X4166700Y6375000D01*
X4173300Y6300000D01*
X4183300Y6250000D01*
X4203300Y6200000D01*
X4226700Y6166700D01*
X4250000Y6150000D01*
X4273300D01*
X4296700Y6166700D01*
X4316700Y6191700D01*
X4333300Y6225000D01*
G01X4460000Y6650000D02*
X4540000D01*
G01X4500000D02*
Y6150000D01*
G01X4460000D02*
X4540000D01*
G01X4683300Y6650000D02*
Y6150000D01*
X4816700D01*
G01X4933300Y6650000D02*
Y6150000D01*
X5066700D01*
G01X5166700D02*
X5250000Y6650000D01*
X5333300Y6150000D01*
G01X5303300Y6325000D02*
X5196700D01*
G01X5500000Y6650000D02*
Y6150000D01*
G01X5423300Y6650000D02*
X5576700D01*
G01X5750000Y6150000D02*
X5723300Y6158300D01*
X5700000Y6191700D01*
X5680000Y6241700D01*
X5666700Y6300000D01*
X5660000Y6366700D01*
Y6433300D01*
X5666700Y6500000D01*
X5680000Y6558300D01*
X5700000Y6608300D01*
X5723300Y6641700D01*
X5750000Y6650000D01*
X5776700Y6641700D01*
X5800000Y6608300D01*
X5820000Y6558300D01*
X5833300Y6500000D01*
X5840000Y6433300D01*
Y6366700D01*
X5833300Y6300000D01*
X5820000Y6241700D01*
X5800000Y6191700D01*
X5776700Y6158300D01*
X5750000Y6150000D01*
G01X5933300D02*
Y6650000D01*
X6016700D01*
X6043300Y6625000D01*
X6060000Y6591700D01*
X6066700Y6525000D01*
X6060000Y6458300D01*
X6040000Y6416700D01*
X6016700Y6391700D01*
X5933300D01*
G01X6016700D02*
X6066700Y6150000D01*
G01X4445000Y4419600D02*
Y4572000D01*
X4508500Y4635500D01*
Y4762500D01*
X4445000Y4826000D01*
Y4978400D01*
X5461000D01*
Y4419600D01*
X4445000D01*
G01X4448200Y5240000D02*
Y5125300D01*
X4456200Y5101300D01*
X4472100Y5085300D01*
X4492000Y5080000D01*
X4511900Y5085300D01*
X4527800Y5101300D01*
X4535800Y5125300D01*
Y5240000D01*
G01X4608200Y5112000D02*
X4620200Y5093300D01*
X4636100Y5082700D01*
X4654000Y5080000D01*
X4669900Y5082700D01*
X4685800Y5096000D01*
X4695800Y5112000D01*
X4697800Y5128000D01*
X4693800Y5146700D01*
X4679900Y5160000D01*
X4665900Y5165300D01*
X4648000D01*
G01X4665900D02*
X4677900Y5173300D01*
X4687800Y5186700D01*
X4691800Y5202700D01*
X4687800Y5218700D01*
X4677900Y5232000D01*
X4660000Y5240000D01*
X4642100Y5237300D01*
X4624100Y5226700D01*
G01X5270500Y3111500D02*
Y3746500D01*
X5778500D01*
Y3111500D01*
X5270500D01*
G01X5314700Y4033500D02*
X5364500Y3873500D01*
X5414300Y4033500D01*
G01X5484700Y3873500D02*
Y4033500D01*
X5534400D01*
X5550400Y4025500D01*
X5560300Y4014800D01*
X5564300Y3993500D01*
X5560300Y3972200D01*
X5548400Y3958800D01*
X5534400Y3950800D01*
X5484700D01*
G01X5534400D02*
X5564300Y3873500D01*
G01X5684500D02*
Y4033500D01*
X5660600Y4001500D01*
G01Y3873500D02*
X5708400D01*
G01X5715000Y4419600D02*
Y4572000D01*
X5778500Y4635500D01*
Y4762500D01*
X5715000Y4826000D01*
Y4978400D01*
X6731000D01*
Y4419600D01*
X5715000D01*
G01X5718200Y5240000D02*
Y5125300D01*
X5726200Y5101300D01*
X5742100Y5085300D01*
X5762000Y5080000D01*
X5781900Y5085300D01*
X5797800Y5101300D01*
X5805800Y5125300D01*
Y5240000D01*
G01X5945900Y5080000D02*
Y5240000D01*
X5872200Y5125300D01*
X5971800D01*
G01X6667500Y3530600D02*
Y2819400D01*
X6413500D01*
Y3530600D01*
X6667500D01*
G01X6032500Y2819400D02*
Y3530600D01*
X6286500D01*
Y2819400D01*
X6032500D01*
G01X6420700Y3619500D02*
Y3779500D01*
X6470400D01*
X6486400Y3771500D01*
X6496300Y3760800D01*
X6500300Y3739500D01*
X6496300Y3718200D01*
X6484400Y3704800D01*
X6470400Y3696800D01*
X6420700D01*
G01X6470400D02*
X6500300Y3619500D01*
G01X6576700Y3643500D02*
X6588700Y3630200D01*
X6602600Y3622200D01*
X6620500Y3619500D01*
X6638400Y3624800D01*
X6652300Y3635500D01*
X6662300Y3654200D01*
X6664300Y3675500D01*
X6660300Y3696800D01*
X6650300Y3710200D01*
X6636400Y3720800D01*
X6622500Y3723500D01*
X6608600Y3720800D01*
X6590700Y3710200D01*
X6596600Y3779500D01*
X6650300D01*
G01X6039700Y3619500D02*
Y3779500D01*
X6089400D01*
X6105400Y3771500D01*
X6115300Y3760800D01*
X6119300Y3739500D01*
X6115300Y3718200D01*
X6103400Y3704800D01*
X6089400Y3696800D01*
X6039700D01*
G01X6089400D02*
X6119300Y3619500D01*
G01X6239500D02*
Y3779500D01*
X6215600Y3747500D01*
G01Y3619500D02*
X6263400D01*
G01X7239000Y2819400D02*
Y3530600D01*
X7493000D01*
Y2819400D01*
X7239000D01*
G01X7112000Y3530600D02*
Y2819400D01*
X6858000D01*
Y3530600D01*
X7112000D01*
G01X6865200Y3619500D02*
Y3779500D01*
X6914900D01*
X6930900Y3771500D01*
X6940800Y3760800D01*
X6944800Y3739500D01*
X6940800Y3718200D01*
X6928900Y3704800D01*
X6914900Y3696800D01*
X6865200D01*
G01X6914900D02*
X6944800Y3619500D01*
G01X7088900D02*
Y3779500D01*
X7015200Y3664800D01*
X7114800D01*
G01X7246200Y3619500D02*
Y3779500D01*
X7295900D01*
X7311900Y3771500D01*
X7321800Y3760800D01*
X7325800Y3739500D01*
X7321800Y3718200D01*
X7309900Y3704800D01*
X7295900Y3696800D01*
X7246200D01*
G01X7295900D02*
X7325800Y3619500D01*
G01X7402200Y3651500D02*
X7414200Y3632800D01*
X7430100Y3622200D01*
X7448000Y3619500D01*
X7463900Y3622200D01*
X7479800Y3635500D01*
X7489800Y3651500D01*
X7491800Y3667500D01*
X7487800Y3686200D01*
X7473900Y3699500D01*
X7459900Y3704800D01*
X7442000D01*
G01X7459900D02*
X7471900Y3712800D01*
X7481800Y3726200D01*
X7485800Y3742200D01*
X7481800Y3758200D01*
X7471900Y3771500D01*
X7454000Y3779500D01*
X7436100Y3776800D01*
X7418100Y3766200D01*
G01X7493000Y4381500D02*
G03I-254000J0D01*
G01X6885300Y4718700D02*
X6873300Y4726700D01*
X6859400Y4732000D01*
X6843500D01*
X6825600Y4724000D01*
X6811700Y4710700D01*
X6801700Y4694700D01*
X6793700Y4668000D01*
X6791700Y4644000D01*
X6795700Y4620000D01*
X6801700Y4604000D01*
X6813600Y4588000D01*
X6827600Y4577300D01*
X6841500Y4572000D01*
X6855400D01*
X6869400Y4577300D01*
X6881300Y4585300D01*
X6891300Y4596000D01*
G01X6963700Y4638700D02*
X6977600Y4657300D01*
X6989600Y4668000D01*
X7005500Y4673300D01*
X7019400Y4668000D01*
X7029400Y4657300D01*
X7037300Y4641300D01*
X7039300Y4622700D01*
X7037300Y4606700D01*
X7029400Y4590700D01*
X7017400Y4577300D01*
X7003500Y4572000D01*
X6987600Y4577300D01*
X6973600Y4593300D01*
X6965700Y4617300D01*
X6963700Y4644000D01*
X6967700Y4678700D01*
X6973600Y4697300D01*
X6983600Y4716000D01*
X6997500Y4729300D01*
X7011400Y4732000D01*
X7025400Y4726700D01*
X7035300Y4713300D01*
G01X7493000Y4953000D02*
G03I-254000J0D01*
G01X7075800Y5480700D02*
X7063800Y5488700D01*
X7049900Y5494000D01*
X7034000D01*
X7016100Y5486000D01*
X7002200Y5472700D01*
X6992200Y5456700D01*
X6984200Y5430000D01*
X6982200Y5406000D01*
X6986200Y5382000D01*
X6992200Y5366000D01*
X7004100Y5350000D01*
X7018100Y5339300D01*
X7032000Y5334000D01*
X7045900D01*
X7059900Y5339300D01*
X7071800Y5347300D01*
X7081800Y5358000D01*
G01X7215900Y5334000D02*
Y5494000D01*
X7142200Y5379300D01*
X7241800D01*
G01X7683500Y2819400D02*
Y3530600D01*
X7937500D01*
Y2819400D01*
X7683500D01*
G01X7690700Y3619500D02*
Y3779500D01*
X7740400D01*
X7756400Y3771500D01*
X7766300Y3760800D01*
X7770300Y3739500D01*
X7766300Y3718200D01*
X7754400Y3704800D01*
X7740400Y3696800D01*
X7690700D01*
G01X7740400D02*
X7770300Y3619500D01*
G01X7890500D02*
X7904400Y3622200D01*
X7920300Y3630200D01*
X7930300Y3643500D01*
X7934300Y3662200D01*
X7930300Y3680800D01*
X7918400Y3696800D01*
X7900400Y3704800D01*
X7880600D01*
X7868600Y3710200D01*
X7858700Y3723500D01*
X7854700Y3742200D01*
X7860700Y3760800D01*
X7874600Y3774200D01*
X7890500Y3779500D01*
X7906400Y3774200D01*
X7920300Y3760800D01*
X7926300Y3742200D01*
X7922300Y3723500D01*
X7912400Y3710200D01*
X7900400Y3704800D01*
X7880600D01*
X7862600Y3696800D01*
X7850700Y3680800D01*
X7846700Y3662200D01*
X7850700Y3643500D01*
X7860700Y3630200D01*
X7876600Y3622200D01*
X7890500Y3619500D01*
G01X7810500Y4406900D02*
Y5118100D01*
X8064500D01*
Y4406900D01*
X7810500D01*
G01X7817700Y5207000D02*
Y5367000D01*
X7867400D01*
X7883400Y5359000D01*
X7893300Y5348300D01*
X7897300Y5327000D01*
X7893300Y5305700D01*
X7881400Y5292300D01*
X7867400Y5284300D01*
X7817700D01*
G01X7867400D02*
X7897300Y5207000D01*
G01X8013500D02*
X8017500Y5241700D01*
X8023500Y5271000D01*
X8031400Y5297700D01*
X8041400Y5327000D01*
X8057300Y5367000D01*
X7977700D01*
G01X8064500Y2819400D02*
Y3530600D01*
X8318500D01*
Y2819400D01*
X8064500D01*
G01X8135200Y3619500D02*
Y3779500D01*
X8184900D01*
X8200900Y3771500D01*
X8210800Y3760800D01*
X8214800Y3739500D01*
X8210800Y3718200D01*
X8198900Y3704800D01*
X8184900Y3696800D01*
X8135200D01*
G01X8184900D02*
X8214800Y3619500D01*
G01X8297200Y3752800D02*
X8309100Y3768800D01*
X8323100Y3776800D01*
X8339000Y3779500D01*
X8358900Y3774200D01*
X8372800Y3760800D01*
X8376800Y3744800D01*
X8374800Y3728800D01*
X8366800Y3715500D01*
X8327000Y3688800D01*
X8309100Y3670200D01*
X8297200Y3643500D01*
X8293200Y3619500D01*
X8376800D01*
G01X8953500Y5118100D02*
Y4406900D01*
X8699500D01*
Y5118100D01*
X8953500D01*
G01X8255000Y4406900D02*
Y5118100D01*
X8509000D01*
Y4406900D01*
X8255000D01*
G01X8690200Y5207000D02*
Y5367000D01*
X8739900D01*
X8755900Y5359000D01*
X8765800Y5348300D01*
X8769800Y5327000D01*
X8765800Y5305700D01*
X8753900Y5292300D01*
X8739900Y5284300D01*
X8690200D01*
G01X8739900D02*
X8769800Y5207000D01*
G01X8890000D02*
Y5367000D01*
X8866100Y5335000D01*
G01Y5207000D02*
X8913900D01*
G01X9050000Y5367000D02*
X9034100Y5361700D01*
X9022100Y5348300D01*
X9014200Y5332300D01*
X9008200Y5311000D01*
X9006200Y5287000D01*
X9008200Y5263000D01*
X9014200Y5241700D01*
X9022100Y5225700D01*
X9034100Y5212300D01*
X9050000Y5207000D01*
X9065900Y5212300D01*
X9077900Y5225700D01*
X9085800Y5241700D01*
X9091800Y5263000D01*
X9093800Y5287000D01*
X9091800Y5311000D01*
X9085800Y5332300D01*
X9077900Y5348300D01*
X9065900Y5361700D01*
X9050000Y5367000D01*
G01X8262200Y5207000D02*
Y5367000D01*
X8311900D01*
X8327900Y5359000D01*
X8337800Y5348300D01*
X8341800Y5327000D01*
X8337800Y5305700D01*
X8325900Y5292300D01*
X8311900Y5284300D01*
X8262200D01*
G01X8311900D02*
X8341800Y5207000D01*
G01X8428200Y5225700D02*
X8442100Y5212300D01*
X8458000Y5207000D01*
X8473900Y5212300D01*
X8487900Y5228300D01*
X8497800Y5252300D01*
X8501800Y5276300D01*
Y5305700D01*
X8497800Y5329700D01*
X8487900Y5351000D01*
X8475900Y5361700D01*
X8462000Y5367000D01*
X8446100Y5361700D01*
X8434100Y5351000D01*
X8426200Y5335000D01*
X8422200Y5313700D01*
X8426200Y5295000D01*
X8436100Y5276300D01*
X8448100Y5265700D01*
X8462000Y5263000D01*
X8477900Y5268300D01*
X8489900Y5281700D01*
X8501800Y5305700D01*
G01X9627000Y3373000D02*
X9373000D01*
Y3881000D01*
X9627000D01*
Y3373000D01*
G01X9278200Y4032500D02*
X9288200Y4016500D01*
X9300100Y4005800D01*
X9314000Y4000500D01*
X9329900Y4005800D01*
X9341900Y4016500D01*
X9353800Y4032500D01*
X9357800Y4053800D01*
Y4160500D01*
G01X9478000Y4000500D02*
Y4160500D01*
X9454100Y4128500D01*
G01Y4000500D02*
X9501900D01*
M02*
