G04 ================== begin FILE IDENTIFICATION RECORD ==================*
G04 Layout Name:  C:/Users/user/Desktop/work/OSCILLATOR/allegro/OSCILLATOR.brd*
G04 Film Name:    TOP*
G04 File Format:  Gerber RS274X*
G04 File Origin:  Cadence Allegro 17.2-P019*
G04 Origin Date:  Thu Aug 01 12:29:09 2019*
G04 *
G04 Layer:  ETCH/TOP*
G04 Layer:  PIN/TOP*
G04 Layer:  VIA CLASS/TOP*
G04 *
G04 Offset:    (0.000 0.000)*
G04 Mirror:    No*
G04 Mode:      Positive*
G04 Rotation:  0*
G04 FullContactRelief:  No*
G04 UndefLineWidth:     0.000*
G04 ================== end FILE IDENTIFICATION RECORD ====================*
%FSLAX25Y25*MOMM*%
%IR0*IPPOS*OFA0.00000B0.00000*MIA0B0*SFA1.00000B1.00000*%
%ADD12C,1.524*%
%ADD16C,1.651*%
%ADD15C,1.905*%
%ADD14R,1.524X1.524*%
%ADD13R,1.905X1.905*%
%ADD11C,.61*%
%ADD10C,.635*%
%ADD17C,1.*%
%ADD18C,.5*%
%ADD20C,1.91*%
%ADD22C,2.164*%
%ADD19C,1.782*%
%ADD21C,.868*%
G75*
%LPD*%
G75*
G36*
G01X754200Y500000D02*
Y754200D01*
X500000D01*
Y3402900D01*
G03Y3581100I0J89100D01*
G01Y3656900D01*
G03Y3835100I0J89100D01*
G01Y3910900D01*
G03Y4089100I0J89100D01*
G01Y6245800D01*
X754200D01*
Y6500000D01*
X9245800D01*
Y6245800D01*
X9500000D01*
Y3843100D01*
G03Y3664900I0J-89100D01*
G01Y3589100D01*
G03Y3410900I0J-89100D01*
G01Y754200D01*
X9245800D01*
Y500000D01*
X754200D01*
G37*
%LPC*%
G75*
G36*
G01X5752900Y4241800D02*
Y4394200D01*
G02X5765800Y4407100I12900J0D01*
G01X5918200D01*
G02X5931100Y4394200I0J-12900D01*
G01Y4241800D01*
G02X5918200Y4228900I-12900J0D01*
G01X5765800D01*
G02X5752900Y4241800I0J12900D01*
G37*
G36*
G01X4482900D02*
Y4394200D01*
G02X4495800Y4407100I12900J0D01*
G01X4648200D01*
G02X4661100Y4394200I0J-12900D01*
G01Y4241800D01*
G02X4648200Y4228900I-12900J0D01*
G01X4495800D01*
G02X4482900Y4241800I0J12900D01*
G37*
G36*
G01X1752400Y3162300D02*
Y3314700D01*
G02X1765300Y3327600I12900J0D01*
G01X1917700D01*
G02X1930600Y3314700I0J-12900D01*
G01Y3162300D01*
G02X1917700Y3149400I-12900J0D01*
G01X1765300D01*
G02X1752400Y3162300I0J12900D01*
G37*
G36*
G01X1796800Y1619200D02*
Y1809800D01*
G02X1809800Y1822600I12900J-100D01*
G01X2000200D01*
G02X2013200Y1809800I100J-12900D01*
G01Y1619200D01*
G02X2000200Y1606400I-12900J100D01*
G01X1809800D01*
G02X1796800Y1619200I-100J12900D01*
G37*
G36*
G01X2387400Y3157900D02*
Y2493600D01*
G02X2311600I-37900J-80600D01*
G01Y3157900D01*
G02X2387400I37900J80600D01*
G37*
G36*
G01X3141800Y4654800D02*
Y4845200D01*
G02X3154800Y4858200I12950J50D01*
G01X3345200D01*
G02X3358200Y4845200I50J-12950D01*
G01Y4654800D01*
G02X3345200Y4641800I-12950J-50D01*
G01X3154800D01*
G02X3141800Y4654800I-50J12950D01*
G37*
G36*
G01X3010900Y3123800D02*
Y3276200D01*
G02X3023800Y3289100I12900J0D01*
G01X3176200D01*
G02X3189100Y3276200I0J-12900D01*
G01Y3123800D01*
G02X3176200Y3110900I-12900J0D01*
G01X3023800D01*
G02X3010900Y3123800I0J12900D01*
G37*
G36*
G01X2635300Y4675700D02*
G02X2618200Y4592700I-17782J-39598D01*
G02X2635300Y4675700I-68204J57313D01*
G37*
G36*
G01X3428400Y4191900D02*
Y4011000D01*
G02X3302600Y4034800I-74421J-48995D01*
G01Y4244100D01*
X3439400Y4380900D01*
X3631900D01*
X3695100Y4444100D01*
Y4662000D01*
G02X3820900I62900J88000D01*
G01Y4391900D01*
X3684100Y4255100D01*
X3491600D01*
X3428400Y4191900D01*
G37*
G36*
G01X7445200Y4026100D02*
X7403900Y3984800D01*
Y3770700D01*
G02X7328100I-37900J-87700D01*
G01Y4016200D01*
X7413800Y4101900D01*
X7871800D01*
X7899600Y4129700D01*
Y4166800D01*
G02X7975400I37900J87700D01*
G01Y4098300D01*
X7903200Y4026100D01*
X7445200D01*
G37*
G36*
G01X7752800Y3606900D02*
G03X7737300Y3602800I-6138J-8143D01*
G02X7703800Y3663000I-39799J17274D01*
G03X7715400Y3674100I1444J10102D01*
G02X7752800Y3606900I95089J8914D01*
G37*
G36*
G01X5617200Y3391100D02*
X5478100D01*
G02Y3466900I-80600J37900D01*
G01X5585800D01*
X5613600Y3494700D01*
Y3602400D01*
G02X5689400I37900J80600D01*
G01Y3463300D01*
X5617200Y3391100D01*
G37*
G36*
G01X2139800Y3161200D02*
G03X2138200Y3144700I5096J-8822D01*
G02X2074400Y3137600I-28668J-32592D01*
G03X2069200Y3153400I-8228J6048D01*
G02X2139800Y3161200I26328J85109D01*
G37*
G36*
G01X7752800Y2590900D02*
G03X7737300Y2586800I-6138J-8143D01*
G02X7703800Y2647000I-39799J17274D01*
G03X7715400Y2658100I1444J10102D01*
G02X7752800Y2590900I95089J8914D01*
G37*
G36*
G01X3319700Y2502100D02*
X3135700D01*
G02Y2577900I-87700J37900D01*
G01X3288300D01*
X3316100Y2605700D01*
Y3119400D01*
G02X3391900I37900J80600D01*
G01Y2574300D01*
X3319700Y2502100D01*
G37*
G36*
G01X3666400Y3880200D02*
X3698700Y3847900D01*
X4460700D01*
X4546400Y3762200D01*
Y3446100D01*
G02X4589100Y3403400I-37900J-80600D01*
G01X5014300D01*
X5042100Y3431200D01*
Y4237400D01*
G02X5117900I37900J80600D01*
G01Y3664900D01*
G03X5133700Y3656400I10195J15D01*
G02Y3583800I23800J-36300D01*
G03X5117900Y3575300I-5605J-8515D01*
G01Y3399800D01*
X5045700Y3327600D01*
X4589100D01*
G02X4546400Y3284900I-80600J37900D01*
G01Y2555700D01*
X4587700Y2514400D01*
X7300300D01*
X7328100Y2542200D01*
Y2579300D01*
G02Y2754700I37900J87700D01*
G01Y3444700D01*
X7413800Y3530400D01*
X8125800D01*
X8153600Y3558200D01*
Y3595300D01*
G02X8229400I37900J87700D01*
G01Y3526800D01*
X8157200Y3454600D01*
X7445200D01*
X7403900Y3413300D01*
Y2754700D01*
G02Y2579300I-37900J-87700D01*
G01Y2510800D01*
X7331700Y2438600D01*
X4556300D01*
X4470600Y2524300D01*
Y3284900D01*
G02Y3446100I37900J80600D01*
G01Y3730800D01*
X4429300Y3772100D01*
X3667300D01*
X3570100Y3869300D01*
Y3881400D01*
G02X3666800Y3895100I37900J80613D01*
G03X3666400Y3880200I6772J-7637D01*
G37*
G36*
G01X2557700Y1651600D02*
X2501000D01*
G02Y1777400I-88000J62900D01*
G01X2609900D01*
X2617200Y1770100D01*
X2697100D01*
X2731100Y1804100D01*
Y2577400D01*
X2540600Y2767900D01*
Y3175400D01*
G02X2666400I62900J63100D01*
G01Y2820100D01*
X2856900Y2629600D01*
Y1751900D01*
X2749300Y1644300D01*
X2565000D01*
X2557700Y1651600D01*
G37*
G36*
G01X2124700Y2069900D02*
X2196900Y1997700D01*
Y1815800D01*
G02X2121100I-37900J-101300D01*
G01Y1966300D01*
X2093300Y1994100D01*
X2016300D01*
X1930600Y2079800D01*
Y2332400D01*
G02X2006400I37900J80600D01*
G01Y2111200D01*
X2047700Y2069900D01*
X2124700D01*
G37*
G36*
G01X3088400Y1610600D02*
G02X3140600Y1547400I37107J-22509D01*
G02X3088400Y1610600I-92626J-23347D01*
G37*
G36*
G01X7073800Y2702200D02*
X7074900Y2699200D01*
G02X7017200Y2756900I-89900J-32200D01*
G01X7020200Y2755800D01*
X7074100Y2809700D01*
Y3612700D01*
G03X7056300Y3619500I-10204J-15D01*
G02X6947100Y3770700I-71308J63533D01*
G01Y4061800D01*
X6855800Y4153100D01*
X6397800D01*
X6314700Y4236200D01*
G02X6415000Y4257100I35282J81804D01*
G03X6415200Y4242900I7430J-6997D01*
G01X6429200Y4228900D01*
X6543700D01*
G03X6549900Y4247200I14J10196D01*
G02X6658100I54100J70800D01*
G03X6664300Y4228900I6186J-8104D01*
G01X6887200D01*
X7022900Y4093200D01*
Y3770700D01*
G02X7056300Y3746500I-38015J-87616D01*
G03X7074100Y3753300I7596J6815D01*
G01Y4810300D01*
X7032800Y4851600D01*
X6384300D01*
X6312100Y4923800D01*
Y4999400D01*
G02X6387900I37900J80600D01*
G01Y4955200D01*
X6415700Y4927400D01*
X7064200D01*
X7138600Y4853000D01*
G03X7155400Y4856700I7217J7223D01*
G02X7168200Y4771900I83614J-30745D01*
G03X7149900Y4765700I-8104J-6186D01*
G01Y4568800D01*
G03X7168200Y4562600I10196J-14D01*
G02Y4454400I70800J-54100D01*
G03X7149900Y4448200I-8104J-6186D01*
G01Y4314800D01*
G03X7168200Y4308600I10196J-14D01*
G02Y4200400I70800J-54100D01*
G03X7149900Y4194200I-8104J-6186D01*
G01Y2778300D01*
X7073800Y2702200D01*
G37*
G54D20*
X7937500Y5270500D03*
X6159500Y2667000D03*
X6540500D03*
X8191500D03*
X6159500Y3683000D03*
X6540500D03*
X8826500Y4254500D03*
Y5270500D03*
X8382000Y4254500D03*
Y5270500D03*
G54D22*
X3504000Y4750000D03*
G54D19*
X1714500Y2413000D03*
X1841500Y4000500D03*
X2603500Y2413000D03*
X2349500Y4000500D03*
X2550000Y4904000D03*
X3862000Y3200000D03*
X4254500Y3365500D03*
X3862000Y3962000D03*
X4826000Y4318000D03*
X5334000D03*
X6096000D03*
X3608000Y3200000D03*
X5651500Y3175000D03*
X2095500Y4000500D03*
X2603500D03*
X4572000Y5080000D03*
X5080000D03*
X6096000D03*
X6604000D03*
X7239000D03*
X3100000Y3962000D03*
X4826000Y5080000D03*
X5334000D03*
X5842000D03*
G54D21*
X1093500Y1080100D03*
X1601500D03*
X2109500D03*
X2617500D03*
X3125500D03*
X3633500D03*
X4141500D03*
X4649500D03*
X5157500D03*
X5665500D03*
X6173500D03*
X6681500D03*
X7189500D03*
X7697500D03*
X8205500D03*
X8713500D03*
X1093500Y1588100D03*
X1601500D03*
X2617500D03*
X3633500D03*
X4141500D03*
X4649500D03*
X5157500D03*
X5665500D03*
X6173500D03*
X6681500D03*
X7189500D03*
X7697500D03*
X8205500D03*
X8713500D03*
X1093500Y2096100D03*
X1601500D03*
X2617500D03*
X3125500D03*
X3633500D03*
X4141500D03*
X4649500D03*
X5157500D03*
X5665500D03*
X6173500D03*
X6681500D03*
X7189500D03*
X7697500D03*
X8205500D03*
X8713500D03*
X2109500Y2604100D03*
X2617500D03*
X3633500D03*
X4141500D03*
X4649500D03*
X5157500D03*
X5665500D03*
X6681500D03*
X7189500D03*
X8713500D03*
X1093500Y3112100D03*
X4141500D03*
X8713500D03*
X1093500Y3620100D03*
X2109500D03*
X2617500D03*
X3125500D03*
X3633500D03*
X4141500D03*
X4649500D03*
X6681500D03*
X8713500D03*
X1093500Y4128100D03*
X3633500D03*
X4141500D03*
X4649500D03*
X8713500D03*
X1093500Y4636100D03*
X1601500D03*
X2109500D03*
X3633500D03*
X4141500D03*
X4649500D03*
X8205500D03*
X8713500D03*
X1093500Y5144100D03*
X1601500D03*
X2109500D03*
X2617500D03*
X3125500D03*
X3633500D03*
X5665500D03*
X7697500D03*
X8205500D03*
X8713500D03*
X1093500Y5652100D03*
X1601500D03*
X2109500D03*
X2617500D03*
X3125500D03*
X3633500D03*
X4141500D03*
X4649500D03*
X5157500D03*
X5665500D03*
X6173500D03*
X6681500D03*
X7189500D03*
X7697500D03*
X8205500D03*
X8713500D03*
%LPD*%
G75*
G54D10*
X500000Y500000D03*
Y6500000D03*
X9500000Y500000D03*
Y6500000D03*
G54D11*
X1093500Y1080100D03*
Y1588100D03*
Y2096100D03*
Y3112100D03*
Y4128100D03*
Y3620100D03*
Y4636100D03*
Y5652100D03*
Y5144100D03*
X1601500Y1080100D03*
Y1588100D03*
Y2096100D03*
Y4636100D03*
Y5652100D03*
Y5144100D03*
X2617500Y1080100D03*
X2109500D03*
X2617500Y1588100D03*
Y2604100D03*
X2109500D03*
X2617500Y2096100D03*
X2109500Y3112100D03*
X2617500Y3620100D03*
X2109500D03*
X2617500Y4636100D03*
X2109500D03*
X2617500Y5652100D03*
X2109500D03*
X2617500Y5144100D03*
X2109500D03*
X3125500Y1080100D03*
Y1588100D03*
Y2096100D03*
Y3620100D03*
Y5652100D03*
Y5144100D03*
X4141500Y1080100D03*
X3633500D03*
X4141500Y1588100D03*
X3633500D03*
X4141500Y2604100D03*
X3633500D03*
X4141500Y2096100D03*
X3633500D03*
X4141500Y3112100D03*
Y4128100D03*
X3633500D03*
X4141500Y3620100D03*
X3633500D03*
X4141500Y4636100D03*
X3633500D03*
X4141500Y5652100D03*
X3633500D03*
Y5144100D03*
X4649500Y1080100D03*
Y1588100D03*
Y2604100D03*
Y2096100D03*
Y4128100D03*
Y3620100D03*
Y4636100D03*
Y5652100D03*
X5665500Y1080100D03*
X5157500D03*
X5665500Y1588100D03*
X5157500D03*
X5665500Y2604100D03*
X5157500D03*
X5665500Y2096100D03*
X5157500D03*
Y3620100D03*
X5665500Y5652100D03*
X5157500D03*
X5665500Y5144100D03*
X6173500Y1080100D03*
Y1588100D03*
Y2096100D03*
Y5652100D03*
X7189500Y1080100D03*
X6681500D03*
X7189500Y1588100D03*
X6681500D03*
X7189500Y2604100D03*
X6681500D03*
X7189500Y2096100D03*
X6681500D03*
Y3620100D03*
X7189500Y5652100D03*
X6681500D03*
X7697500Y1080100D03*
Y1588100D03*
Y2604100D03*
Y2096100D03*
Y3620100D03*
Y5652100D03*
Y5144100D03*
X8713500Y1080100D03*
X8205500D03*
X8713500Y1588100D03*
X8205500D03*
X8713500Y2604100D03*
Y2096100D03*
X8205500D03*
X8713500Y3112100D03*
Y4128100D03*
Y3620100D03*
Y4636100D03*
X8205500D03*
X8713500Y5652100D03*
X8205500D03*
X8713500Y5144100D03*
X8205500D03*
G54D12*
X500000Y3492000D03*
Y4000000D03*
Y3746000D03*
X1714500Y2413000D03*
X1968500D03*
X1841500Y4000500D03*
X2603500Y2413000D03*
X2349500D03*
X2603500Y3238500D03*
X2349500D03*
X2095500D03*
X2603500Y4000500D03*
X2349500D03*
X2095500D03*
X2550000Y4650000D03*
Y4904000D03*
X3354000Y3200000D03*
X3100000Y3962000D03*
X3354000D03*
X3608000Y3200000D03*
X3862000D03*
X4254500Y3365500D03*
X3608000Y3962000D03*
X3862000D03*
X4508500Y3365500D03*
X4826000Y4318000D03*
Y5080000D03*
X4572000D03*
X5651500Y3175000D03*
X5397500Y3429000D03*
X5651500Y3683000D03*
X5334000Y4318000D03*
X5080000D03*
X5334000Y5080000D03*
X5080000D03*
X6096000Y4318000D03*
X6350000D03*
X5842000Y5080000D03*
X6096000D03*
X6350000D03*
X7239000Y4254500D03*
X6604000Y4318000D03*
X7239000Y4508500D03*
Y4826000D03*
X6604000Y5080000D03*
X7239000D03*
X9500000Y3500000D03*
Y3754000D03*
G54D13*
X1905000Y1714500D03*
X3250000Y4750000D03*
G54D14*
X1841500Y3238500D03*
X3100000Y3200000D03*
X4572000Y4318000D03*
X5842000D03*
G54D15*
X2159000Y1714500D03*
X2413000D03*
X3504000Y4750000D03*
X3758000D03*
G54D16*
X3048000Y1524000D03*
Y2540000D03*
X6540500Y2667000D03*
X6159500D03*
X6540500Y3683000D03*
X6159500D03*
X6985000Y2667000D03*
Y3683000D03*
X7810500Y2667000D03*
X7366000D03*
X7810500Y3683000D03*
X7366000D03*
X7937500Y4254500D03*
Y5270500D03*
X8191500Y2667000D03*
Y3683000D03*
X8826500Y4254500D03*
X8382000D03*
X8826500Y5270500D03*
X8382000D03*
G54D17*
G01X2413000Y1714500D02*
X2583800D01*
X2591100Y1707200D01*
X2723200D01*
X2794000Y1778000D01*
Y2603500D01*
X2603500Y2794000D01*
Y3238500D01*
G01X3354000Y3962000D02*
X3365500Y3973500D01*
Y4218000D01*
X3465500Y4318000D01*
X3658000D01*
X3758000Y4418000D01*
Y4750000D01*
G54D18*
G01X2159000Y1714500D02*
Y1982000D01*
X2109000Y2032000D01*
X2032000D01*
X1968500Y2095500D01*
Y2413000D01*
G01X2349500Y3238500D02*
Y2413000D01*
G01X3048000Y2540000D02*
X3304000D01*
X3354000Y2590000D01*
Y3200000D01*
G01X4508500Y3365500D02*
Y3746500D01*
X4445000Y3810000D01*
X3683000D01*
X3608000Y3885000D01*
Y3962000D01*
G01X7366000Y2667000D02*
Y2526500D01*
X7316000Y2476500D01*
X4572000D01*
X4508500Y2540000D01*
Y3365500D01*
G01X5080000Y4318000D02*
Y3415500D01*
X5030000Y3365500D01*
X4508500D01*
G01X5651500Y3683000D02*
Y3479000D01*
X5601500Y3429000D01*
X5397500D01*
G01X6985000Y3683000D02*
Y4077500D01*
X6871500Y4191000D01*
X6413500D01*
X6350000Y4254500D01*
Y4318000D01*
G01Y5080000D02*
Y4939500D01*
X6400000Y4889500D01*
X7048500D01*
X7112000Y4826000D01*
Y2794000D01*
X6985000Y2667000D01*
G01X7366000D02*
Y3429000D01*
X7429500Y3492500D01*
X8141500D01*
X8191500Y3542500D01*
Y3683000D01*
G01X7366000D02*
Y4000500D01*
X7429500Y4064000D01*
X7887500D01*
X7937500Y4114000D01*
Y4254500D01*
M02*
